<svg height="480pt" viewBox="-32 0 480 480.0461" width="480pt" xmlns="http://www.w3.org/2000/svg"><path d="m208.023438 104c-92.785157 0-168 75.214844-168 168s75.214843 168 168 168c92.785156 0 168-75.214844 168-168-.105469-92.738281-75.261719-167.894531-168-168zm117.601562 176h33.957031c-4.152343 77.503906-66.054687 139.421875-143.558593 143.59375v-25.992188c0-4.417968-3.582032-8-8-8-4.417969 0-8 3.582032-8 8v25.957032c-77.507813-4.152344-139.421876-66.054688-143.59375-143.558594h33.992187c4.417969 0 8-3.582031 8-8s-3.582031-8-8-8h-33.992187c4.15625-77.515625 66.078124-139.4375 143.59375-143.59375v25.992188c0 4.417968 3.582031 8 8 8 4.417968 0 8-3.582032 8-8v-25.992188c77.515624 4.15625 139.4375 66.078125 143.589843 143.59375h-33.988281c-4.421875 0-8 3.582031-8 8s3.578125 8 8 8zm0 0"/><path d="m216.023438 64.199219v-16.199219h24c4.417968 0 8-3.582031 8-8v-32c0-4.417969-3.582032-8-8-8h-64c-4.417969 0-8 3.582031-8 8v32c0 4.417969 3.582031 8 8 8h24v16.199219c-113.230469 4.359375-202.140626 98.554687-199.960938 211.847656s94.644531 204 207.960938 204c113.316406 0 205.78125-90.707031 207.960937-204s-86.730469-207.488281-199.960937-211.847656zm-32-32.199219v-16h48v16zm24 432c-106.039063 0-192-85.960938-192-192s85.960937-192 192-192c106.039062 0 192 85.960938 192 192-.125 105.988281-86.011719 191.875-192 192zm0 0"/><path d="m286.367188 178.089844-105.761719 65.109375c-.070313.046875-.109375.136719-.183594.183593-.480469.378907-.917969.8125-1.304687 1.289063-.4375.398437-.832032.84375-1.175782 1.328125-.046875.078125-.125.121094-.175781.199219l-59.34375 109.082031c-1.714844 3.179688-1.085937 7.113281 1.535156 9.597656 2.617188 2.488282 6.582031 2.910156 9.667969 1.03125l105.8125-65.109375c.074219-.046875.113281-.136719.1875-.183593.480469-.378907.917969-.8125 1.300781-1.289063.4375-.398437.832031-.84375 1.175781-1.328125.050782-.078125.128907-.121094.175782-.199219l59.347656-109.082031c1.714844-3.179688 1.085938-7.113281-1.535156-9.597656-2.621094-2.488282-6.582032-2.910156-9.667969-1.03125zm-139.527344 158.46875 40-73.597656 31.328125 29.695312zm82.351562-55.519532-31.328125-29.695312 71.34375-43.902344zm0 0"/></svg>